Coordinates
version=1
nRows=25
nColumns=34
inDegrees=no

Units are S.I. units (second, meters, Newtons, ...)
If the header above contains a line with 'inDegrees', this indicates whether rotational values are in degrees (yes) or radians (no).

endheader
time	pelvis_tilt	pelvis_list	pelvis_rotation	pelvis_tx	pelvis_ty	pelvis_tz	hip_flexion_r	hip_adduction_r	hip_rotation_r	knee_angle_r	ankle_angle_r	subtalar_angle_r	mtp_angle_r	hip_flexion_l	hip_adduction_l	hip_rotation_l	knee_angle_l	ankle_angle_l	subtalar_angle_l	mtp_angle_l	lumbar_extension	lumbar_bending	lumbar_rotation	arm_flex_r	arm_add_r	arm_rot_r	elbow_flex_r	pro_sup_r	arm_flex_l	arm_add_l	arm_rot_l	elbow_flex_l	pro_sup_l
2.61	-0.359287	-0.0431603	-0.00788383	-0.329363	0.653224	-0.581363	1.49193	-0.155755	-0.0140171	1.69412	0.528501	-0.292879	-0.091265	1.56004	-0.16026	0.0884489	1.71757	0.586079	0.00390572	-0.0912431	-0.643121	0.0510101	0.00779841	0.240894	-0.316458	0.319702	0.387895	1.79123	0.26179	-0.274919	0.0201515	0.398134	1.04647
2.62	-0.351731	-0.044798	-0.000709987	-0.325922	0.663108	-0.581552	1.46056	-0.158593	-0.019134	1.67033	0.522046	-0.299377	-0.091265	1.52901	-0.151229	0.0892132	1.6918	0.57978	-0.00297553	-0.0912431	-0.632205	0.055078	-0.000787597	0.253632	-0.315419	0.283078	0.430339	1.74363	0.295922	-0.277675	0.00961377	0.444145	1.05127
2.63	-0.343566	-0.0465435	0.00577285	-0.322262	0.673212	-0.581692	1.42816	-0.161009	-0.0250483	1.64577	0.51429	-0.305838	-0.091265	1.49703	-0.14274	0.090587	1.66555	0.572468	-0.0108791	-0.0912431	-0.619189	0.0586036	-0.0107891	0.268029	-0.315755	0.245435	0.482977	1.696	0.328608	-0.280441	-0.000764691	0.497302	1.05473
2.64	-0.334914	-0.0481993	0.0112103	-0.318383	0.683501	-0.581755	1.39493	-0.162665	-0.0315269	1.62039	0.505204	-0.312258	-0.091265	1.46413	-0.135313	0.0920562	1.63886	0.564269	-0.0195026	-0.091243	-0.60413	0.061198	-0.0219654	0.284092	-0.317111	0.20835	0.545261	1.65076	0.358647	-0.283687	-0.0101062	0.559527	1.05551
2.65	-0.325911	-0.049618	0.0152435	-0.314287	0.693956	-0.581716	1.36099	-0.163233	-0.0383716	1.59403	0.494876	-0.318591	-0.091265	1.4303	-0.129612	0.0930005	1.61168	0.555444	-0.0282315	-0.091243	-0.587135	0.0625852	-0.0339479	0.301872	-0.319314	0.173398	0.616741	1.6102	0.385072	-0.287936	-0.0175098	0.632554	1.05304
2.66	-0.31673	-0.0507242	0.0175481	-0.309979	0.704565	-0.581553	1.32638	-0.162411	-0.0454194	1.56642	0.4835	-0.324775	-0.091265	1.39553	-0.126327	0.0928089	1.58386	0.546352	-0.0362844	-0.091243	-0.568304	0.0626337	-0.0462833	0.321533	-0.322374	0.142147	0.696943	1.576	0.40732	-0.293643	-0.0223597	0.717496	1.0478
2.67	-0.307603	-0.05151	0.0178901	-0.305457	0.71532	-0.581257	1.29115	-0.159963	-0.0525136	1.53725	0.471347	-0.330752	-0.091265	1.35981	-0.12598	0.0910137	1.55516	0.537374	-0.0429661	-0.0912429	-0.547677	0.0613614	-0.0584983	0.343384	-0.326453	0.116033	0.785231	1.54905	0.425334	-0.301108	-0.0244275	0.814583	1.04125
2.68	-0.298808	-0.0520076	0.016179	-0.300717	0.726226	-0.580826	1.25532	-0.155776	-0.0594602	1.50616	0.458718	-0.336478	-0.091265	1.32317	-0.128745	0.0873887	1.52523	0.528812	-0.0479112	-0.0912429	-0.525212	0.0589058	-0.0701671	0.367873	-0.331803	0.0961684	0.880716	1.52958	0.439586	-0.310449	-0.0238115	0.923063	1.03557
2.69	-0.29065	-0.0522397	0.0124959	-0.295752	0.737294	-0.580267	1.21893	-0.149931	-0.0660005	1.47276	0.445885	-0.341878	-0.0912651	1.28561	-0.134355	0.0819622	1.49362	0.5208	-0.0511979	-0.0912429	-0.500806	0.0554774	-0.0809561	0.395538	-0.338708	0.0832181	0.982249	1.51703	0.451043	-0.321591	-0.0207869	1.0413	1.03298
2.7	-0.283408	-0.0521688	0.00709817	-0.290551	0.74854	-0.579599	1.182	-0.142753	-0.0718178	1.43668	0.433024	-0.346772	-0.0912651	1.24707	-0.142148	0.0749424	1.45979	0.513239	-0.0532813	-0.0912428	-0.474348	0.0513067	-0.0906394	0.426941	-0.347427	0.077336	1.08847	1.5101	0.461046	-0.334277	-0.0156467	1.16695	1.03518
2.71	-0.277272	-0.0516801	0.000395379	-0.285096	0.760003	-0.578853	1.14446	-0.134825	-0.0765784	1.39756	0.42012	-0.350834	-0.0912651	1.20743	-0.151193	0.0665992	1.42313	0.50577	-0.0547971	-0.0912428	-0.445778	0.046602	-0.0990913	0.462588	-0.35816	0.0781739	1.19789	1.50704	0.471132	-0.348099	-0.00857535	1.29722	1.04307
2.72	-0.272297	-0.0506015	-0.0071019	-0.279365	0.771753	-0.578071	1.10614	-0.126915	-0.0800025	1.35497	0.406879	-0.353592	-0.0912651	1.16641	-0.160461	0.0571705	1.38293	0.497757	-0.0563325	-0.0912428	-0.415149	0.041532	-0.106249	0.502834	-0.371022	0.0849508	1.309	1.50599	0.48283	-0.362557	0.000416206	1.42909	1.05677
2.73	-0.268379	-0.0487621	-0.014863	-0.273328	0.783898	-0.577302	1.0667	-0.119832	-0.0819535	1.30842	0.392653	-0.354443	-0.0912651	1.1236	-0.168992	0.0468214	1.33839	0.488278	-0.0582251	-0.0912428	-0.382662	0.0362318	-0.112051	0.547798	-0.386045	0.0965798	1.42034	1.50532	0.497438	-0.377114	0.0114783	1.55956	1.07591
2.74	-0.265252	-0.0460581	-0.0224256	-0.266949	0.796582	-0.576596	1.0256	-0.114255	-0.0825314	1.25724	0.37639	-0.352645	-0.0912651	1.07847	-0.176044	0.0356241	1.28867	0.476108	-0.0603997	-0.0912427	-0.34869	0.0308231	-0.116366	0.597273	-0.403195	0.111839	1.53061	1.50364	0.515837	-0.39126	0.0248392	1.68585	1.09986
2.75	-0.262509	-0.0424927	-0.0294532	-0.2602	0.809978	-0.575991	0.982134	-0.110603	-0.0821525	1.2006	0.35665	-0.34728	-0.0912651	1.03036	-0.181158	0.0235192	1.23284	0.459712	-0.0622614	-0.0912427	-0.313781	0.0254317	-0.118982	0.65066	-0.422378	0.129525	1.63874	1.49993	0.538356	-0.404546	0.0406803	1.80557	1.12783
2.76	-0.259627	-0.0381809	-0.0357449	-0.253069	0.824268	-0.575511	0.935436	-0.109005	-0.0816151	1.13747	0.331662	-0.337215	-0.0912651	0.978564	-0.184138	0.0102477	1.16993	0.43727	-0.062666	-0.0912427	-0.278643	0.0201947	-0.119641	0.70691	-0.443452	0.148554	1.74389	1.49359	0.564686	-0.416604	0.0590117	1.91677	1.15897
2.77	-0.256029	-0.0333206	-0.0412112	-0.245563	0.839623	-0.575167	0.884582	-0.109314	-0.0821456	1.06675	0.299446	-0.321149	-0.0912652	0.922373	-0.184974	-0.00473235	1.099	0.406727	-0.0599937	-0.0912426	-0.244099	0.0152534	-0.118124	0.764496	-0.466207	0.168006	1.84549	1.48432	0.593871	-0.427167	0.0795886	2.01809	1.19236
2.78	-0.251166	-0.0281435	-0.0458402	-0.237721	0.856191	-0.574958	0.828757	-0.111176	-0.085403	0.987373	0.258003	-0.297747	-0.0912652	0.86121	-0.18375	-0.0223173	1.0192	0.365946	-0.0523299	-0.0912426	-0.210999	0.010727	-0.114335	0.821411	-0.49034	0.18711	1.94325	1.47201	0.624372	-0.436088	0.101898	2.1087	1.2272
2.79	-0.244622	-0.0228622	-0.0496699	-0.229615	0.874065	-0.574871	0.767464	-0.114097	-0.0934157	0.898646	0.205597	-0.265861	-0.0912652	0.794797	-0.180563	-0.0437767	0.929995	0.312955	-0.0377488	-0.0912426	-0.180113	0.00667171	-0.108357	0.875219	-0.515427	0.205202	2.037	1.45693	0.654232	-0.443367	0.125227	2.18837	1.26267
2.8	-0.236204	-0.0176357	-0.052768	-0.22136	0.893269	-0.574883	0.700764	-0.117517	-0.10843	0.800527	0.14113	-0.224833	-0.0912652	0.723351	-0.175491	-0.0706608	0.831393	0.246319	-0.0146844	-0.0912425	-0.152013	0.00305196	-0.100452	0.923184	-0.540914	0.221662	2.12663	1.44013	0.681327	-0.449149	0.148796	2.25739	1.29768
2.81	-0.226027	-0.0125632	-0.0552165	-0.213104	0.913735	-0.574969	0.629485	-0.120887	-0.132656	0.694016	0.0645533	-0.174822	-0.0912652	0.647769	-0.168589	-0.10456	0.724239	0.16559	0.0176372	-0.0912425	-0.126987	-0.000259017	-0.0910238	0.962463	-0.566147	0.235849	2.2118	1.42366	0.703699	-0.453683	0.171923	2.31649	1.33086
2.82	-0.214533	-0.00769484	-0.0570938	-0.205046	0.935294	-0.575102	0.555343	-0.123741	-0.167894	0.581469	-0.0227473	-0.117105	-0.0912652	0.569739	-0.159922	-0.146733	0.610505	0.0717572	0.0587807	-0.0912425	-0.105002	-0.00345366	-0.0805351	0.990363	-0.590431	0.247049	2.29189	1.41066	0.719886	-0.457245	0.194155	2.36665	1.36093
2.83	-0.202453	-0.00303979	-0.0584594	-0.197384	0.957679	-0.575256	0.480899	-0.125782	-0.215046	0.46676	-0.117723	-0.0542505	-0.0912652	0.491719	-0.149618	-0.197685	0.49346	-0.0324248	0.106817	-0.0912424	-0.0857445	-0.0067579	-0.0694301	1.00463	-0.613073	0.254464	2.36591	1.40498	0.729179	-0.460043	0.215324	2.40882	1.38738
2.84	-0.190628	0.00142943	-0.0593448	-0.190305	0.980534	-0.575412	0.409352	-0.126952	-0.273574	0.355165	-0.215728	0.00996063	-0.0912653	0.416741	-0.13793	-0.256782	0.377633	-0.142378	0.158295	-0.0912424	-0.0687075	-0.0103964	-0.0580778	1.00376	-0.633397	0.257255	2.43251	1.41067	0.73172	-0.462148	0.235506	2.44382	1.41068
2.85	-0.179946	0.00572385	-0.0597632	-0.18396	1.00342	-0.575541	0.344101	-0.12747	-0.341037	0.252931	-0.311015	0.0709196	-0.0912653	0.348015	-0.1253	-0.322012	0.268532	-0.252053	0.208577	-0.0912424	-0.0534254	-0.0145712	-0.0467514	0.987211	-0.650723	0.254639	2.49018	1.4313	0.728425	-0.463465	0.254917	2.47232	1.43192
